<svg class="w-screen h-auto absolute bottom-28 -mt-px text-tertiary-100 rotate-180" width="1896" height="121" viewBox="0 0 1896 121" fill="none" xmlns="http://www.w3.org/2000/svg">
<path fill-rule="evenodd" clip-rule="evenodd" d="M0 62.7232L79 57.9241C158 53.125 316 43.5268 474 53.125C632 62.7232 790 91.5179 948 77.1205C1106 62.7232 1264 5.13391 1422 0.334806C1580 -4.4643 1738 43.5268 1817 67.5223L1896 91.5179V120.312H1817C1738 120.312 1580 120.312 1422 120.312C1264 120.312 1106 120.312 948 120.312C790 120.312 632 120.312 474 120.312C316 120.312 158 120.312 79 120.312H0V62.7232Z" fill="currentColor"></path>
</svg>