<svg class="c-icon inline-flex text-current [&amp;>path]:stroke-current w-8 h-8" width="512" height="512" viewBox="0 0 512 512" xmlns="http://www.w3.org/2000/svg"><rect height="48" rx="4" width="48" x="272" y="208"></rect><rect height="48" rx="4" width="48" x="352" y="208"></rect><rect height="48" rx="4" width="48" x="272" y="288"></rect><rect height="48" rx="4" width="48" x="352" y="288"></rect><rect height="48" rx="4" width="48" x="112" y="288"></rect><rect height="48" rx="4" width="48" x="192" y="288"></rect><rect height="48" rx="4" width="48" x="112" y="368"></rect><rect height="48" rx="4" width="48" x="192" y="368"></rect><rect height="48" rx="4" width="48" x="272" y="368"></rect><path d="m448 64h-48v-32h-40v32h-208v-32h-40v32h-48a32 32 0 0 0 -32 32v352a32 32 0 0 0 32 32h384a32 32 0 0 0 32-32v-352a32 32 0 0 0 -32-32zm-12 372h-360v-260h360z"></path></svg>